<?xml version="1.0" encoding="UTF-8" standalone="no"?>
<!DOCTYPE svg PUBLIC "-//W3C//DTD SVG 1.1//EN" "http://www.w3.org/Graphics/SVG/1.1/DTD/svg11.dtd">
<svg width="100%" height="100%" viewBox="0 0 3508 849" version="1.1" xmlns="http://www.w3.org/2000/svg" xmlns:xlink="http://www.w3.org/1999/xlink" xml:space="preserve" xmlns:serif="http://www.serif.com/" style="fill-rule:evenodd;clip-rule:evenodd;stroke-linejoin:round;stroke-miterlimit:2;">
    <g transform="matrix(1,0,0,1,-21588.1,-2757.37)">
        <g id="Artboard1" transform="matrix(1,0,0,0.341931,21588.1,2757.37)">
            <rect x="0" y="0" width="3507.87" height="2480.32" style="fill:none;"/>
            <g transform="matrix(1.47752,0,0,4.32111,-0.387381,-2733.26)">
                <g transform="matrix(0.704516,0,0,0.704516,-498.023,602.555)">
                    <g transform="matrix(0,-4.16667,-4.16667,0,1094.2,179.094)">
                        <path d="M-65,-65C-100.898,-65 -130,-35.898 -130,0C-130,35.898 -100.898,65 -65,65C-29.102,65 0,35.898 0,0C0,-35.898 -29.102,-65 -65,-65" style="fill:rgb(208,3,85);fill-rule:nonzero;"/>
                    </g>
                    <g transform="matrix(4.16667,0,0,4.16667,-1313.93,-601.204)">
                        <path d="M613.655,271.498C613.167,281.214 607.43,287 596.443,288.856L546.565,288.856L546.565,215.687L590.511,215.687C598.47,215.833 604.268,217.701 607.906,221.29C611.543,224.879 613.313,230.018 613.216,236.708C613.118,243.397 609.505,248.158 602.376,250.99C609.31,254.115 613.069,259.461 613.655,267.03L613.655,271.498ZM595.125,237.879C595.076,233.827 592.61,231.776 587.728,231.727L565.608,231.727L565.608,243.958L587.801,243.958C592.732,243.958 595.174,241.932 595.125,237.879ZM593.916,266.224C593.892,262.074 591.731,259.901 587.435,259.706L573.738,259.706L565.535,246.742L565.535,272.45L587.435,272.45C591.78,272.45 593.941,270.374 593.916,266.224Z" style="fill:white;fill-rule:nonzero;"/>
                    </g>
                </g>
                <g transform="matrix(1,0,0,1,304.917,-54.5165)">
                    <g transform="matrix(4.52674,0,0,4.16667,-1478.34,-608.406)">
                        <path d="M415.375,393.686C415.052,400.682 411.25,404.848 403.969,406.184L370.913,406.184L370.913,353.502L400.037,353.502C405.312,353.607 409.154,354.952 411.565,357.536C413.976,360.12 415.149,363.82 415.084,368.637C415.02,373.453 412.625,376.881 407.9,378.92C412.495,381.17 414.987,385.02 415.375,390.469L415.375,393.686ZM403.095,369.481C403.063,366.563 401.428,365.086 398.192,365.051L383.533,365.051L383.533,373.857L398.241,373.857C401.509,373.857 403.127,372.398 403.095,369.481ZM402.294,389.889C402.278,386.9 400.846,385.336 397.998,385.195L388.921,385.195L383.485,375.861L383.485,394.371L397.998,394.371C400.878,394.371 402.31,392.877 402.294,389.889Z" style="fill:rgb(33,31,31);fill-rule:nonzero;"/>
                    </g>
                    <g transform="matrix(4.52674,0,0,4.16667,-1466.34,-608.406)">
                        <rect x="418.582" y="353.397" width="12.135" height="52.734" style="fill:rgb(33,31,31);fill-rule:nonzero;"/>
                    </g>
                    <g transform="matrix(4.52674,0,0,4.16667,-1454.34,-608.406)">
                        <path d="M447.466,373.963L465.571,353.397L481.104,353.397L461.202,376.389L461.008,376.389L481.443,406.131L466.687,406.131L447.417,379.184L447.417,406.131L435.331,406.131L435.331,353.502L447.466,353.502L447.466,373.963Z" style="fill:rgb(33,31,31);fill-rule:nonzero;"/>
                    </g>
                    <g transform="matrix(4.52674,0,0,4.16667,-1454.34,-608.406)">
                        <path d="M521.637,394.688L521.637,406.131L484.747,406.131L484.747,394.688L521.637,394.688ZM518.725,373.752L518.725,385.037L484.747,385.037L484.747,373.752L518.725,373.752ZM524.064,353.502L518.725,364.998L484.747,364.998L484.747,353.502L524.064,353.502Z" style="fill:rgb(33,31,31);fill-rule:nonzero;"/>
                    </g>
                    <g transform="matrix(4.52674,0,0,4.16667,-1454.34,-608.406)">
                        <path d="M541.735,364.787L527.173,364.787L527.173,353.449L570.908,353.449L566.005,364.787L553.87,364.787L553.87,406.131L541.735,406.131L541.735,364.787Z" style="fill:rgb(33,31,31);fill-rule:nonzero;"/>
                    </g>
                    <g transform="matrix(4.52674,0,0,4.16667,-1454.34,-608.406)">
                        <path d="M586.491,376.336L601.102,376.336C603.594,375.668 604.872,373.822 604.937,370.799C604.872,367.424 603.464,365.49 600.714,364.998L586.491,364.998L586.491,376.336ZM574.357,406.131L574.357,353.502L602.121,353.502C606.652,353.713 610.349,355.356 613.213,358.433C616.076,361.509 617.508,365.613 617.508,370.746C617.347,379.43 613.658,384.809 606.441,386.883L618.673,406.131L603.917,406.131L586.443,379.184L586.443,406.131L574.357,406.131Z" style="fill:rgb(33,31,31);fill-rule:nonzero;"/>
                    </g>
                    <g transform="matrix(4.52674,0,0,4.16667,-1454.34,-608.406)">
                        <path d="M677.069,406.184L664.206,406.184L660.275,396.691L647.217,396.691L641.296,387.885L633.675,406.184L620.326,406.184L641.878,353.502L655.469,353.502L677.069,406.184ZM655.469,385.037L648.868,369.322L642.412,385.037L655.469,385.037Z" style="fill:rgb(33,31,31);fill-rule:nonzero;"/>
                    </g>
                    <g transform="matrix(4.52674,0,0,4.16667,-1488.34,-608.406)">
                        <path d="M724.01,353.397L719.107,364.787L703.332,364.787C696.569,364.822 693.122,369.762 692.993,379.606C693.058,389.695 696.1,394.723 702.118,394.688L724.01,394.688L724.01,406.131L700.177,406.131C686.909,404.373 680.276,395.584 680.276,379.764C680.276,363.943 687.557,355.154 702.118,353.397L724.01,353.397Z" style="fill:rgb(33,31,31);fill-rule:nonzero;"/>
                    </g>
                    <g transform="matrix(4.52674,0,0,4.16667,-1488.34,-608.406)">
                        <path d="M765.466,394.688L765.466,406.131L728.575,406.131L728.575,394.688L765.466,394.688ZM762.553,373.752L762.553,385.037L728.575,385.037L728.575,373.752L762.553,373.752ZM767.892,353.502L762.553,364.998L728.575,364.998L728.575,353.502L767.892,353.502Z" style="fill:rgb(33,31,31);fill-rule:nonzero;"/>
                    </g>
                </g>
            </g>
        </g>
    </g>
</svg>
